<svg xmlns="http://www.w3.org/2000/svg" viewBox="0 0 483.55331 483.55331"><defs><style>.a,.i,.k,.l,.n,.o{fill:#fed32f;}.a,.b,.c,.e,.h{stroke:#000;}.a,.b,.c,.e,.f,.h,.i,.j,.k,.l,.m,.n,.o{stroke-miterlimit:10;}.a,.f,.i{stroke-width:3.25317px;}.b,.d{fill:#1d1129;}.c{fill:#1c1423;}.e,.j,.m{fill:#fff;}.f,.h{fill:#8c6239;}.f,.i,.j,.k,.l,.n,.o{stroke:#1d1129;}.g{fill:#724e30;}.h,.n{stroke-width:1.62659px;}.j,.l{stroke-width:1.37258px;}.k{stroke-width:5.38635px;}.m{stroke:#fff;stroke-width:1.54658px;}.o{stroke-width:1.44317px;}</style></defs><circle class="a" cx="241.77665" cy="241.77665" r="240.15007"/><path class="b" d="M80.46651,203.98031c-10.51846-3.80313-19.653-9.71115-28.89066-15.87577-.67645-.52084-.81921-1.44131-.41086-2.73526a128.52928,128.52928,0,0,1,4.68888-12.21905,102.58736,102.58736,0,0,1,5.15549-10.55362c1.06878-1.79523,2.40444-2.59088,3.90759-2.39484,3.42425.61817,5.75876,1.06714,7.02783,1.28162,3.31055.425,5.32458-.011,6.092-1.37192.74494-1.321.18231-3.08346-1.66885-5.35119q-1.02833-1.35943-2.86585-3.48984c-1.22265-1.42349-1.91882-2.2854-2.10333-2.57035-.90887-1.24786-.92264-2.79986.00232-4.54895a95.79593,95.79593,0,0,1,6.09351-9.46582,113.12921,113.12921,0,0,1,7.35363-9.4093c.80619-.90985,1.61792-1.18994,2.39206-.84848,9.77518,5.16675,19.38581,10.3393,27.95056,17.42154l.11512.10117a1.38549,1.38549,0,0,1,.4407,1.0491,2.29811,2.29811,0,0,1-.429,1.3667c-.86236,1.26837-2.80688,3.63449-5.5614,7.272-3.1824,4.20252-5.16845,7.12155-6.19333,8.36695a2.14524,2.14524,0,0,1-1.15527.77966,1.323,1.323,0,0,1-1.07184-.17316l-.25357-.16974a60.96947,60.96947,0,0,0-7.63351-6.26715,11.34444,11.34444,0,0,0-3.98429-1.90475c-1.08334-.20145-1.80886-.01932-2.16684.53879a2.38942,2.38942,0,0,0,.06962,2.455,21.338,21.338,0,0,0,2.74969,3.96362c1.14706,1.36072,2.26584,2.44635,3.02145,3.253a7.01841,7.01841,0,0,1,1.92716,3.61847,5.56486,5.56486,0,0,1-.82465,3.57156c-1.28555,2.28345-3.45611,3.13489-6.59829,2.56177-.33835-.08377-.83072-.20288-1.478-.354q-.9707-.22554-1.77191-.39261-.79949-.16635-1.551-.26361a17.06717,17.06717,0,0,0-4.16058-.17242,2.37573,2.37573,0,0,0-2.00583,1.23724c-.32318.658-.12555,1.39911.59158,2.21112a10.66611,10.66611,0,0,0,3.31415,2.31192l.456.22367a78.23923,78.23923,0,0,0,8.821,3.33862l.13641.06778a1.47506,1.47506,0,0,1,.78287.95062,2.33408,2.33408,0,0,1-.06528,1.44c-.57605,1.62833-2.13312,4.99649-4.24975,10.29374-1.84641,4.621-2.9939,7.84887-3.68644,9.39172a2.9616,2.9616,0,0,1-1.01321,1.26251,1.3286,1.3286,0,0,1-1.19937.23377Z" transform="translate(-1.76667 -4.27553)"/><path class="b" d="M124.69548,134.45656c-2.105,2.11231-4.26623,4.33921-6.478,6.57233a1.96151,1.96151,0,0,1-1.32258.61023,1.18137,1.18137,0,0,1-1.12567-.53229,69.28216,69.28216,0,0,1-9.37228-16.12027,69.53208,69.53208,0,0,1-4.95175-16.93939,2.11368,2.11368,0,0,1,.6499-1.70093,117.20822,117.20822,0,0,1,11.44113-10.50476,117.30054,117.30054,0,0,1,12.44364-9.25335,2.13119,2.13119,0,0,1,1.81869-.3382,70.36375,70.36375,0,0,1,15.4743,8.15384,70.34459,70.34459,0,0,1,13.95948,12.3111,1.3796,1.3796,0,0,1,.30435,1.2113,1.69742,1.69742,0,0,1-.72476,1.11609c-1.82358,1.26767-4.54715,3.01947-8.05429,5.41827-3.32251,2.27252-5.80365,4.05115-7.52393,5.20023a2.01639,2.01639,0,0,1-1.40854.3482,1.39669,1.39669,0,0,1-1.10669-.72058,22.62552,22.62552,0,0,0-2.41537-3.35409c-1.27292-1.50245-3.07975-1.4332-5.373.45688-.14682.121-.22012.18157-.36667.303-2.22848,1.84681-2.70956,3.694-1.472,5.2009a30.36393,30.36393,0,0,0,2.8862,2.963,1.53225,1.53225,0,0,1,.49273,1.26184,1.98206,1.98206,0,0,1-.61114,1.28739C130.25527,129.02007,127.82619,131.315,124.69548,134.45656Zm2.23706-22.23623c.15116-.12519.22675-.18762.37818-.31235a2.98194,2.98194,0,0,0,1.15158-1.596,1.27881,1.27881,0,0,0-.60825-1.34277,43.52588,43.52588,0,0,0-5.8374-4.39124,2.14353,2.14353,0,0,0-1.03034-.34149.47119.47119,0,0,0-.49694.41071,2.12548,2.12548,0,0,0,.142,1.07568c1.1713,2.74164,2.41208,4.94794,3.261,6.51947a1.3323,1.3323,0,0,0,1.22952.829A3.13442,3.13442,0,0,0,126.93254,112.22033Z" transform="translate(-1.76667 -4.27553)"/><path class="b" d="M179.694,97.92449c-8.87757,3.69742-15.08783,6.93918-18.99335,8.84293a1.82754,1.82754,0,0,1-1.358.10214,1.79831,1.79831,0,0,1-1.07-.82315,268.63206,268.63206,0,0,1-14.52856-29.02127c-.32569-.82993.0596-1.60895,1.15255-2.27884a147.96439,147.96439,0,0,1,18.44355-9.2479c9.23962-3.96536,17.58245-4.86721,24.33468-3.21185,6.75247,1.65543,10.75562,5.75922,12.35364,11.81921,1.4772,5.60193.31088,10.14036-3.17368,13.77256C193.37,91.51156,187.65529,94.60866,179.694,97.92449ZM174.06218,85.3861c.13141-.0549.19711-.08231.32858-.137a8.973,8.973,0,0,0,3.62165-2.445,2.921,2.921,0,0,0,.51794-3.08835,5.95772,5.95772,0,0,0-3.19021-3.56952,6.02938,6.02938,0,0,0-4.77262.166c-.13821.05746-.2073.08627-.34546.144-.96042.40143-1.30691,1.0744-.999,1.91428a56.81938,56.81938,0,0,0,2.72674,6.1958,1.66711,1.66711,0,0,0,.95444.83828A1.57977,1.57977,0,0,0,174.06218,85.3861Z" transform="translate(-1.76667 -4.27553)"/><path class="b" d="M248.07524,80.40932c-4.27356,2.55594-10.29422,3.96476-18.27575,4.80228-7.98206.83759-14.18927.71393-18.94706-.88739-4.7579-1.60178-8.00216-5.05942-9.443-10.61563a68.58626,68.58626,0,0,1-1.69672-18.5566c.031-.80658.57816-1.37214,1.63465-1.67291a100.03342,100.03342,0,0,1,9.99954-2.18075,107.35906,107.35906,0,0,1,10.672-1.37276,2.759,2.759,0,0,1,1.707.385.97972.97972,0,0,1,.53216,1.13989,56.68544,56.68544,0,0,0-.55032,15.45416,7.72131,7.72131,0,0,0,1.42084,3.76392,3.79384,3.79384,0,0,0,6.08462-.63846,7.6835,7.6835,0,0,0,.57263-3.97314c-.29214-3.30307-1.50525-8.31639-3.88565-14.98865a.98053.98053,0,0,1,.24048-1.22131,2.58063,2.58063,0,0,1,1.5509-.72773,110.80276,110.80276,0,0,1,11.11228-.89174,98.02084,98.02084,0,0,1,9.82919.06208c1.14041.07618,1.81592.51256,2.02051,1.29416,1.81576,8.38942,2.456,14.56645,2.29871,18.48213C254.7216,73.80468,252.34828,77.8529,248.07524,80.40932Z" transform="translate(-1.76667 -4.27553)"/><path class="b" d="M266.141,84.82482c-3.56384-.33728-6.293-.56461-8.18427-.793a2.06011,2.06011,0,0,1-1.20968-.56372,1.39165,1.39165,0,0,1-.47763-1.08633,204.02131,204.02131,0,0,1,3.58044-32.40386,1.36356,1.36356,0,0,1,.70728-.92875,2.5906,2.5906,0,0,1,1.34222-.38245,189.74109,189.74109,0,0,1,29.396,3.53169c13.56506,2.67006,19.352,7.54724,17.75939,12.695-.8114,2.62256-3.01416,4.31635-6.50842,5.22315a32.61522,32.61522,0,0,1-12.56689.26535,1.57951,1.57951,0,0,0-1.08066.14017.3833.3833,0,0,0-.12625.596,1.50589,1.50589,0,0,0,.99658.51715A21.96488,21.96488,0,0,1,301.62718,78.749a14.157,14.157,0,0,1,3.08741,11.83335,1.40181,1.40181,0,0,1-.78565,1.05734,2.19374,2.19374,0,0,1-1.483.202c-2.12726-.44907-5.3924-1.41761-9.68775-2.48438-4.33325-1.07617-7.58987-1.73129-9.49407-2.29428a2.25246,2.25246,0,0,1-1.14078-.75717,1.32739,1.32739,0,0,1-.29373-1.11173,25.57608,25.57608,0,0,0,.39968-7.87344c-.29367-2.35373-.97442-3.87985-2.01785-4.562a.8249.8249,0,0,0-1.10312.33938,4.43221,4.43221,0,0,0-.692,1.89673,46.412,46.412,0,0,0-.4672,9.22919,1.20131,1.20131,0,0,1-.5339,1.20071,2.06413,2.06413,0,0,1-1.45444.39347C273.663,85.613,270.39473,85.22735,266.141,84.82482ZM281.24938,68.4002c2.49066-.21268,3.8825-.9989,4.15264-2.42978.24491-1.29715-.81274-2.17072-3.18127-2.55716l-.24521-.03986a1.14078,1.14078,0,0,0-1.49069,1.04877l-.47937,2.95746C279.88088,68.14846,280.29378,68.485,281.24938,68.4002Z" transform="translate(-1.76667 -4.27553)"/><path class="b" d="M314.63378,96.31441c-2.66694-1.04339-5.43866-2.09387-8.20862-3.19311a1.80892,1.80892,0,0,1-1.01422-.95111,1.21876,1.21876,0,0,1,.06573-1.23529,71.39261,71.39261,0,0,1,10.88226-15.01581,69.95232,69.95232,0,0,1,13.28766-11.36276,2.02927,2.02927,0,0,1,1.76715-.10508,116.57589,116.57589,0,0,1,13.82355,6.054,118.29865,118.29865,0,0,1,13.32037,7.50018,2.09157,2.09157,0,0,1,1.034,1.51248,70.40429,70.40429,0,0,1-1.29217,17.35053,69.8675,69.8675,0,0,1-5.69452,17.67209,1.38561,1.38561,0,0,1-.996.76254,1.73432,1.73432,0,0,1-1.32636-.21463c-1.91309-1.1564-4.6358-2.93484-8.24066-5.14871-3.41467-2.097-6.01593-3.61936-7.738-4.7085a1.95179,1.95179,0,0,1-.868-1.13235,1.39587,1.39587,0,0,1,.226-1.2934,22.867,22.867,0,0,0,2.1164-3.54773c.87384-1.763.10229-3.36789-2.49964-4.67023-.16656-.0834-.24987-.125-.41662-.20788-2.53552-1.261-4.38666-.94418-5.27893.78885a30.94348,30.94348,0,0,0-1.57947,3.81415,1.564,1.564,0,0,1-.95367.95916,1.92239,1.92239,0,0,1-1.39557-.0271C321.58824,99.12331,318.59917,97.86574,314.63378,96.31441Zm20.8919-7.03692c.17194.08557.25781.12848.42957.21451a2.9029,2.9029,0,0,0,1.89587.39068,1.29792,1.29792,0,0,0,.98615-1.09613,43.84962,43.84962,0,0,0,1.73437-7.06244,2.11307,2.11307,0,0,0-.087-1.06967.454.454,0,0,0-.56415-.28149,2.1541,2.1541,0,0,0-.923.56579c-2.03729,2.175-3.55981,4.194-4.66009,5.60175a1.34077,1.34077,0,0,0-.28095,1.44775A2.99263,2.99263,0,0,0,335.52568,89.27749Z" transform="translate(-1.76667 -4.27553)"/><path class="b" d="M370.11473,131.84017c-7.19934-6.89044-12.77313-11.28711-16.1394-14.10608a1.83442,1.83442,0,0,1-.65137-1.20261,1.77281,1.77281,0,0,1,.324-1.3074,266.74541,266.74541,0,0,1,20.90277-24.88431c.63519-.6289,1.51422-.587,2.58514.14939a144.74118,144.74118,0,0,1,16.28894,13.43539c7.5932,7.10013,12.01264,14.73435,13.36237,21.88764,1.34942,7.15167-.762,12.63766-5.73914,16.46774-4.60083,3.54056-9.34607,4.07544-14.23584,2.06732C381.92174,142.33974,376.5725,138.02086,370.11473,131.84017Zm9.30585-10.14639c.10675.10187.16.15286.2666.255a9.73036,9.73036,0,0,0,3.81464,2.46121,2.93523,2.93523,0,0,0,3.10174-.70007,5.81483,5.81483,0,0,0,1.97412-4.389,6.35772,6.35772,0,0,0-2.1773-4.42541c-.112-.10736-.16809-.161-.28028-.26807-.78015-.74463-1.55346-.80633-2.20587-.19189a55.073,55.073,0,0,0-4.622,4.96124,1.634,1.634,0,0,0-.3786,1.21887A1.65325,1.65325,0,0,0,379.42058,121.69378Z" transform="translate(-1.76667 -4.27553)"/><path class="b" d="M409.74675,187.661c-1.89276-2.96011-3.84888-6.4498-5.89111-10.41961s-3.71179-7.47056-4.9516-10.62174a39.96524,39.96524,0,0,1-2.4809-8.97876,14.37256,14.37256,0,0,1,5.91254-14.31473c4.87353-3.68567,10.44476-4.38925,16.71454-1.41772,6.269,2.97207,12.18146,9.01813,16.95343,18.29413,4.7951,9.32092,6.51391,18.157,5.49585,25.48849-1.01795,7.33072-4.66992,11.8671-10.4552,13.77a13.75108,13.75108,0,0,1-8.2204.30188,16.21981,16.21981,0,0,1-7.04181-4.37543A46.2706,46.2706,0,0,1,409.74675,187.661Zm5.42352-16.4165c1.6233,3.15536,3.76221,4.1066,6.52533,2.74127a6.53938,6.53938,0,0,0,3.235-3.28375,5.04387,5.04387,0,0,0-.2417-4.50244,4.8685,4.8685,0,0,0-3.47241-2.71946,6.36492,6.36492,0,0,0-4.50946.80689,4.34419,4.34419,0,0,0-2.33972,2.92886A6.16437,6.16437,0,0,0,415.17027,171.24453Z" transform="translate(-1.76667 -4.27553)"/><path class="c" d="M58.45632,343.17287a80.04791,80.04791,0,0,1-6.062-14.376A46.359,46.359,0,0,1,50.3,316.49575a17.10724,17.10724,0,0,1,2.13613-9.3598,11.7123,11.7123,0,0,1,6.634-5.084c5.61554-1.84759,11.11944-.05444,16.68008,4.51392,5.56043,4.56778,10.22659,11.03366,14.69714,19.37747,3.44178,6.42383,5.782,11.55023,6.786,15.85779a1.71283,1.71283,0,0,1-1.09066,2.11218c-3.74756,1.571-5.63285,2.33521-9.42566,3.81958a1.35552,1.35552,0,0,1-1.49366-.19293,2.5069,2.5069,0,0,1-.73547-1.75073,32.90157,32.90157,0,0,0-3.90567-12.48328c-3.10889-5.68164-6.28329-7.81793-9.887-6.02753-1.24216.61719-1.7891,2.01013-1.5911,4.1781a22.1604,22.1604,0,0,0,3.00882,8.248,35.90473,35.90473,0,0,0,6.09815,8.18085,30.93441,30.93441,0,0,0,8.31778,5.72766,1.91,1.91,0,0,1,1.282,1.33636,1.54657,1.54657,0,0,1-.56821,1.78321q-3.20691,3.0303-9.9668,8.7713c-.59793.50457-1.30239.405-2.10885-.31372a79.90441,79.90441,0,0,1-8.38538-9.28675A86.53727,86.53727,0,0,1,58.45632,343.17287Z" transform="translate(-1.76667 -4.27553)"/><path class="c" d="M83.50228,379.74636c-2.40726-2.83545-4.80292-5.87909-7.04032-9.111a2.73762,2.73762,0,0,1-.53393-1.68763,1.05267,1.05267,0,0,1,.694-1.06976,106.12939,106.12939,0,0,1,17.73391-5.98065c6.55829-1.6806,12.158-2.94244,16.87662-3.66358a1.75847,1.75847,0,0,1,1.50946.56446c1.56168,1.50207,4.57642,4.87384,9.35465,9.4862,4.805,4.63813,8.21716,7.47895,9.76467,8.97522a1.76778,1.76778,0,0,1,.635,1.50379c-.602,4.663-1.72345,10.25561-3.24539,16.84857a107.82222,107.82222,0,0,1-5.54187,17.86926,1.227,1.227,0,0,1-1.05.72772,2.27746,2.27746,0,0,1-1.54541-.36621,110.11437,110.11437,0,0,1-9.71649-7.03521,106.371,106.371,0,0,1-8.51452-7.46082,2.72581,2.72581,0,0,1-.82422-1.532,1.2432,1.2432,0,0,1,.45352-1.27375,18.61154,18.61154,0,0,0,2.92578-2.91247c1.25421-1.5083.723-3.37714-1.69626-5.70435-.15472-.1488-.232-.22332-.38638-.37268-2.34961-2.27276-4.34113-2.8078-5.7638-1.49261a24.959,24.959,0,0,0-2.73352,3.10065,1.36364,1.36364,0,0,1-1.29663.49487,2.685,2.685,0,0,1-1.52737-.77118A114.80385,114.80385,0,0,1,83.50228,379.74636Zm23.8833,3.70093c.1502.1452.22543.21771.376.36242a3.20131,3.20131,0,0,0,1.81189,1.02021,1.22962,1.22962,0,0,0,1.25534-.77668,54.77256,54.77256,0,0,0,3.5585-6.37457,2.20048,2.20048,0,0,0,.22828-1.05017.44261.44261,0,0,0-.446-.4303,2.16845,2.16845,0,0,0-1.03692.27014c-2.57673,1.46967-4.6706,2.896-6.16327,3.86322a1.28661,1.28661,0,0,0-.6988,1.314A3.38377,3.38377,0,0,0,107.38558,383.44729Z" transform="translate(-1.76667 -4.27553)"/><path class="c" d="M144.94917,388.64651a1.61772,1.61772,0,0,1,1.05289-.494,1.993,1.993,0,0,1,1.23636.35089c5.26608,3.33136,10.73782,6.29382,16.109,8.99792,8.02277,4.03907,13.72729,6.25031,16.64993,7.52961a1.66621,1.66621,0,0,1,1.09113,2.19482c-1.50229,4.92621-2.90927,9.16089-4.15387,12.54163a.95158.95158,0,0,1-.9798.69677,3.47228,3.47228,0,0,1-1.0007-.1261,1.5732,1.5732,0,0,1-.82749-.74572,17.03169,17.03169,0,0,0-4.74783-5.83161,39.06693,39.06693,0,0,0-7.21411-4.27527,9.25029,9.25029,0,0,0-3.83127-1.13012,1.92761,1.92761,0,0,0-1.82956.84314l-.14087.271c-.71933,1.38367.91828,3.13605,5.00666,5.03278a81.319,81.319,0,0,0,8.37539,3.03961c.07489.03058.17.06934.28321.1153a1.6033,1.6033,0,0,1,1.05133,1.95434c-.09217.54383-.23667,1.209-.43973,1.98419q-.30455,1.16246-.69025,2.53974-.38636,1.37584-.55334,1.96521l-.03809.09466a1.00746,1.00746,0,0,1-.91574.73151,2.43019,2.43019,0,0,1-.93045-.09509,1.60843,1.60843,0,0,1-.63647-.47431,41.23391,41.23391,0,0,0-8.97394-5.9002c-.23053-.10779-.46234-.21882-.69156-.325-1.98844-.92028-3.48786-1.30877-4.45682-1.14935a3.10607,3.10607,0,0,0-2.27774,1.81159,18.3007,18.3007,0,0,0-1.21432,4.05944c-.42652,1.98621-.66379,3.09894-.7306,3.33008l-.09231.18109a1.24453,1.24453,0,0,1-.96536.627,2.90384,2.90384,0,0,1-1.60605-.21509,101.36194,101.36194,0,0,1-11.30539-5.99353,101.18417,101.18417,0,0,1-8.80771-5.76593,2.84023,2.84023,0,0,1-.994-1.27826,1.32027,1.32027,0,0,1,.09622-1.28705A284.64551,284.64551,0,0,1,144.94917,388.64651Z" transform="translate(-1.76667 -4.27553)"/><path class="c" d="M196.2701,447.07039a151.51288,151.51288,0,0,1-22.64221-6.55615,2.644,2.644,0,0,1-1.25434-.99585,1.382,1.382,0,0,1-.21243-1.28528c4.02145-10.09759,8.01227-20.211,12.92783-29.9187a1.62435,1.62435,0,0,1,2.10382-.74225c2.27349.59681,7.99105,2.47931,17.37835,4.5514,9.02317,1.9917,15.20059,2.745,18.2572,3.26324a1.62394,1.62394,0,0,1,1.54429,1.80261c-.20932,4.40754-.65268,8.30219-.88315,11.27344a1.17137,1.17137,0,0,1-.97779,1.17053,2.38759,2.38759,0,0,1-1.94339-.52575,41.07563,41.07563,0,0,0-13.77911-5.43781,9.38656,9.38656,0,0,0-3.94607-.16345c-.88831.24072-1.40452.65289-1.542,1.24646l-.03418.14746c-.252,1.088,1.78531,2.15186,6.15421,2.9696,1.11124.20795,2.62079.43915,4.52746.66437,1.90613.22522,3.41889.40143,4.53766.55738a2.576,2.576,0,0,1,1.38343.59765,1.22937,1.22937,0,0,1,.45947,1.13349c-.22141,1.46368-.33234,2.19549-.55469,3.659a1.153,1.153,0,0,1-.76181.97412,1.37978,1.37978,0,0,1-1.30759-.1253,40.20922,40.20922,0,0,0-9.14767-3.031,21.42547,21.42547,0,0,0-5.309-.41961c-1.09253.12878-1.737.59863-1.92777,1.42224l-.08013.346c-.42753,1.84564,2.15454,3.45135,7.80911,4.4646a23.295,23.295,0,0,0,9.17047.07659,16.52951,16.52951,0,0,0,7.1943-3.87439,2.06983,2.06983,0,0,1,2.08991-.41088,1.47544,1.47544,0,0,1,1.24078,1.3814q.417,5.17246.20478,14.406a1.46959,1.46959,0,0,1-.69733,1.14062,2.47174,2.47174,0,0,1-1.51715.4068A168.41021,168.41021,0,0,1,196.2701,447.07039Z" transform="translate(-1.76667 -4.27553)"/><path class="c" d="M255.01521,451.93282a116.10627,116.10627,0,0,1-13.10357.12488,2.44425,2.44425,0,0,1-1.70069-.75641,1.36468,1.36468,0,0,1-.34277-1.349c2.63574-10.46039,3.85339-16.74884,4.34979-18.51208a2.25393,2.25393,0,0,0-.30447-2.28022,2.79757,2.79757,0,0,0-2.08725-.82025c-1.15356-.01165-3.0993.59729-5.92047,1.75226s-4.47916,1.74286-4.89249,1.85071a1.57668,1.57668,0,0,1-2.18887-1.67688c.32461-2.92877.82214-7.25745,1.68353-12.68256a1.62256,1.62256,0,0,1,1.89459-1.34637c3.52948.097,10.39527.43133,20.54084-.07587s16.94723-1.52643,20.45285-1.9776a1.63151,1.63151,0,0,1,2.02722,1.149c1.54471,5.77039,2.5983,9.96112,3.08633,12.58569a1.41106,1.41106,0,0,1-.53488,1.4588,1.59265,1.59265,0,0,1-1.55768.29114,50.41485,50.41485,0,0,1-5.09442-1.34631c-2.90961-.86963-4.88165-1.2843-5.98743-1.16162a2.88763,2.88763,0,0,0-2.02127,1.028,2.16791,2.16791,0,0,0-.09491,2.3017c.34983.84729.80164,2.23822,1.41312,4.06055.61139,1.82208,1.40469,4.16882,2.40591,7.03241,1.00071,2.86462,1.84494,5.15582,2.50657,6.88012a1.51692,1.51692,0,0,1-.26688,1.3841,2.35223,2.35223,0,0,1-1.54691.91516A112.82555,112.82555,0,0,1,255.01521,451.93282Z" transform="translate(-1.76667 -4.27553)"/><path class="c" d="M309.08525,442.32888a151.42915,151.42915,0,0,1-22.8865,5.611,2.67759,2.67759,0,0,1-1.589-.23462,1.40978,1.40978,0,0,1-.8439-1.00232c-1.749-10.69952-3.53318-21.397-4.31607-32.22259-.05967-.84882.41842-1.41211,1.42419-1.68616,2.25922-.61554,8.13773-1.82794,17.32385-4.72113,8.82929-2.78082,14.592-5.24127,17.517-6.33679a1.66022,1.66022,0,0,1,2.275.77246c2.0998,3.90063,3.7323,7.47674,5.06946,10.14935a1.15478,1.15478,0,0,1-.24432,1.50147,2.42489,2.42489,0,0,1-1.96155.52813,42.27421,42.27421,0,0,0-14.76642,2.22821,9.34466,9.34466,0,0,0-3.49872,1.82831,1.82512,1.82512,0,0,0-.68933,1.84308l.04669.1441c.34443,1.06324,2.653.96692,6.86078-.51251,1.07-.37616,2.49689-.9317,4.26746-1.69324,1.76843-.7608,3.17377-1.36907,4.22583-1.79711a2.62565,2.62565,0,0,1,1.50964-.18067,1.25332,1.25332,0,0,1,.98584.74463c.56555,1.37158.84809,2.05737,1.41278,3.42932a1.13385,1.13385,0,0,1-.15753,1.222,1.38846,1.38846,0,0,1-1.20032.54968,41.196,41.196,0,0,0-9.50055,1.97357,21.41482,21.41482,0,0,0-4.81268,2.289,1.897,1.897,0,0,0-.931,2.18653l.10956.33807c.58435,1.80377,3.64325,1.904,9.06738-.0517a23.2083,23.2083,0,0,0,7.9942-4.53283,16.29775,16.29775,0,0,0,4.2475-6.96338,2.07,2.07,0,0,1,1.60492-1.41113,1.50994,1.50994,0,0,1,1.79468.56q3.04147,4.23954,7.63953,12.29194a1.451,1.451,0,0,1-.017,1.33587,2.47139,2.47139,0,0,1-1.10993,1.11969A164.17664,164.17664,0,0,1,309.08525,442.32888Z" transform="translate(-1.76667 -4.27553)"/><path class="c" d="M350.84545,424.06838a98.0028,98.0028,0,0,1-9.06617,4.68939,2.83417,2.83417,0,0,1-1.59466.23749,1.31724,1.31724,0,0,1-1.05976-.66406,271.478,271.478,0,0,1-13.07214-29.91467,1.389,1.389,0,0,1,.05481-1.1142,2.05315,2.05315,0,0,1,.78876-.92676,185.395,185.395,0,0,0,21.50549-13.66272c9.64575-7.08551,15.78034-9.47412,19.41754-5.48675,1.85248,2.03082,2.2536,4.77642,1.03607,8.21789-1.21844,3.44226-3.77526,6.97815-7.70373,10.3703a1.71037,1.71037,0,0,0-.64465.92951.37294.37294,0,0,0,.36651.48828,1.64012,1.64012,0,0,0,1.09912-.44312,33.95,33.95,0,0,1,13.73529-5.94482,16.235,16.235,0,0,1,12.67627,2.55108,1.23122,1.23122,0,0,1,.48126,1.26545,3.027,3.027,0,0,1-.8103,1.63977,102.26834,102.26834,0,0,1-9.38769,8.51556,97.58171,97.58171,0,0,1-9.84473,7.36115,3.1501,3.1501,0,0,1-1.59564.49115,1.25707,1.25707,0,0,1-1.11066-.491,23.75756,23.75756,0,0,0-5.55383-5.676c-1.97388-1.39148-3.606-1.954-4.92029-1.6795a.915.915,0,0,0-.64685,1.04834,4.15544,4.15544,0,0,0,.76038,1.87848,36.39469,36.39469,0,0,0,6.15612,6.96447,1.05,1.05,0,0,1,.37616,1.28138,2.78355,2.78355,0,0,1-1.08331,1.45282A116.049,116.049,0,0,1,350.84545,424.06838Zm2.52771-23.11945c1.72875-1.91284,2.13641-3.48608,1.28729-4.67334-.76972-1.07623-2.11493-.91967-4.066.40717l-.20282.13776a1.12778,1.12778,0,0,0-.3504,1.76928c.6723.99555,1.00842,1.49323,1.68066,2.48877C352.15923,401.7261,352.71141,401.68581,353.37316,400.94893Z" transform="translate(-1.76667 -4.27553)"/><path class="c" d="M408.5692,373.97225a97.7203,97.7203,0,0,1-7.57062,9.34839,95.48632,95.48632,0,0,1-8.30554,8.49768,3.29514,3.29514,0,0,1-1.564.76038,1.28333,1.28333,0,0,1-1.21857-.30329c-7.43317-7.82745-14.88-15.91614-21.31256-24.73706a1.7287,1.7287,0,0,1,.27612-2.30224c1.26392-1.514,3.13019-3.52442,5.43366-6.1139,2.25109-2.5307,4.03405-4.62823,5.415-6.07855a1.85087,1.85087,0,0,1,2.26526-.55682c9.42438,5.46429,18.198,12.07281,26.72205,18.65857a1.28832,1.28832,0,0,1,.46326,1.18884A3.44345,3.44345,0,0,1,408.5692,373.97225Z" transform="translate(-1.76667 -4.27553)"/><path class="c" d="M419.12267,359.67812c-2.10572,3.20386-4.38935,6.411-6.86389,9.47138a2.68019,2.68019,0,0,1-1.4621.978,1.03576,1.03576,0,0,1-1.20587-.386,105.10534,105.10534,0,0,1-10.47895-15.67023,168.076,168.076,0,0,1-7.96-15.58887,1.88651,1.88651,0,0,1,.15552-1.66632c1.05115-2.00018,3.54089-5.99188,6.87506-12.36835,3.35284-6.41217,5.341-11.00552,6.44916-13.1727a2.06891,2.06891,0,0,1,1.3313-1.20526c4.743-1.02661,10.5318-1.8666,17.40753-2.68756a99.80586,99.80586,0,0,1,18.97388-.75558,1.12075,1.12075,0,0,1,.96661.87066,2.95752,2.95752,0,0,1,.00061,1.83277,136.48857,136.48857,0,0,1-4.6557,13.07184,124.02721,124.02721,0,0,1-5.30225,11.53106,3.15692,3.15692,0,0,1-1.30414,1.36786,1.1731,1.1731,0,0,1-1.36145-.04169,16.88476,16.88476,0,0,0-3.57269-2.04742c-1.78265-.78851-3.49566.39441-5.17651,3.62274-.10755.20648-.16144.30963-.26941.51563-1.64392,3.13586-1.66095,5.30987-.02435,6.3341a23.27544,23.27544,0,0,0,3.70861,1.79145,1.34873,1.34873,0,0,1,.8078,1.15557,3.03682,3.03682,0,0,1-.36755,1.78254A123.45806,123.45806,0,0,1,419.12267,359.67812Zm-2.46582-25.11566c.10486-.2002.15722-.30048.26159-.50116a3.76548,3.76548,0,0,0,.55353-2.18964,1.17381,1.17381,0,0,0-1.06915-1.03418,50.80132,50.80132,0,0,0-7.1211-1.55975,2.12667,2.12667,0,0,0-1.08483.10883.50839.50839,0,0,0-.31043.59411,2.18487,2.18487,0,0,0,.52051.9715c2.0755,2.15417,3.9967,3.83624,5.30591,5.03668a1.2134,1.2134,0,0,0,1.45837.28961A3.83044,3.83044,0,0,0,416.65685,334.56246Z" transform="translate(-1.76667 -4.27553)"/><path class="d" d="M79.676,200.72317c-10.80615-3.85114-20.23083-9.83033-29.7615-16.07377-.69815-.52725-.85337-1.4559-.44785-2.75946A128.07164,128.07164,0,0,1,54.142,169.58105a102.014,102.014,0,0,1,5.158-10.62934c1.07245-1.80707,2.42871-2.60351,3.96738-2.39654,3.50723.64477,5.898,1.11313,7.1972,1.33789,3.38764.45053,5.43924.02475,6.20588-1.34375.74411-1.32831.14721-3.11182-1.771-5.41608q-1.06681-1.38075-2.96909-3.54691c-1.26574-1.44741-1.987-2.32382-2.17883-2.61322a4.1038,4.1038,0,0,1-.05322-4.601,95.187,95.187,0,0,1,6.09833-9.53653,112.50731,112.50731,0,0,1,7.373-9.47583c.80918-.91571,1.632-1.19317,2.42447-.84045,10.01877,5.32486,19.86737,10.65784,28.66349,17.913l.1184.10364a1.43733,1.43733,0,0,1,.4635,1.06626,2.27056,2.27056,0,0,1-.41473,1.37789c-.8559,1.2728-2.795,3.64554-5.54138,7.2912-3.173,4.212-5.15375,7.13776-6.17877,8.38336a2.11864,2.11864,0,0,1-1.16547.7753,1.37438,1.37438,0,0,1-1.09454-.18478l-.26081-.17361a64.24059,64.24059,0,0,0-7.86758-6.3946,11.89815,11.89815,0,0,0-4.08749-1.95807c-1.10724-.21258-1.84458-.03454-2.20221.52634a2.396,2.396,0,0,0,.10366,2.4802,22.143,22.143,0,0,0,2.85776,4.024c1.18909,1.38352,2.34336,2.48624,3.12616,3.30731a7.2426,7.2426,0,0,1,2.01566,3.66489,5.47614,5.47614,0,0,1-.79215,3.59207c-1.28064,2.28977-3.48541,3.12958-6.70215,2.52884-.34665-.08688-.8511-.21051-1.51419-.36752q-.99444-.23433-1.81509-.40839-.8188-.17331-1.58783-.27661a17.68557,17.68557,0,0,0-4.25348-.20209,2.37647,2.37647,0,0,0-2.035,1.23423c-.32236.66122-.11139,1.40951.63159,2.23227a11.17989,11.17989,0,0,0,3.41632,2.35015l.46887.22821a82.4764,82.4764,0,0,0,9.058,3.42054l.14029.06915a1.53139,1.53139,0,0,1,.81235.96185,2.30768,2.30768,0,0,1-.048,1.44776c-.56723,1.63217-2.11527,5.00927-4.21765,10.31842-1.834,4.63134-2.974,7.86685-3.666,9.41189a2.922,2.922,0,0,1-1.024,1.263,1.37393,1.37393,0,0,1-1.22619.23Z" transform="translate(-1.76667 -4.27553)"/><path class="d" d="M123.78612,131.05132c-2.10071,2.117-4.25873,4.349-6.46857,6.584a1.93851,1.93851,0,0,1-1.33307.603,1.23389,1.23389,0,0,1-1.15094-.55093,72.04718,72.04718,0,0,1-9.75189-16.4288,71.46483,71.46483,0,0,1-5.25647-17.24344,2.109,2.109,0,0,1,.63812-1.7229,116.65354,116.65354,0,0,1,11.47538-10.584,116.71945,116.71945,0,0,1,12.492-9.31781,2.1246,2.1246,0,0,1,1.83664-.32911,72.346,72.346,0,0,1,15.7424,8.45377,73.19154,73.19154,0,0,1,14.23566,12.69165,1.4421,1.4421,0,0,1,.3226,1.2384,1.68114,1.68114,0,0,1-.715,1.13056c-1.81921,1.27328-4.53927,3.03033-8.04226,5.43451-3.31858,2.27765-5.79758,4.059-7.518,5.20816a1.99233,1.99233,0,0,1-1.41757.33831,1.45705,1.45705,0,0,1-1.12869-.74493,23.83786,23.83786,0,0,0-2.48951-3.437c-1.30874-1.54242-3.13372-1.48993-5.42681.40716-.14679.12146-.22013.18229-.36664.30417-2.22827,1.85367-2.68985,3.72376-1.41428,5.26886a31.9734,31.9734,0,0,0,2.96457,3.0409,1.59738,1.59738,0,0,1,.51749,1.2868,1.9582,1.9582,0,0,1-.59888,1.29993C129.33394,125.60146,126.91051,127.90264,123.78612,131.05132ZM125.726,108.5c.15125-.12573.22693-.18848.37845-.31375a2.93678,2.93678,0,0,0,1.14349-1.61148,1.33366,1.33366,0,0,0-.634-1.37207,45.44019,45.44019,0,0,0-5.96912-4.52478,2.20578,2.20578,0,0,0-1.04812-.3573.46519.46519,0,0,0-.498.41311,2.1882,2.1882,0,0,0,.15808,1.09571c1.223,2.80023,2.50846,5.05316,3.39142,6.66223a1.38846,1.38846,0,0,0,1.25653.85519A3.08553,3.08553,0,0,0,125.726,108.5Z" transform="translate(-1.76667 -4.27553)"/><path class="d" d="M178.72228,94.44173c-8.87162,3.7056-15.07807,6.95157-18.9842,8.85407a1.80854,1.80854,0,0,1-1.36572.09039,1.87309,1.87309,0,0,1-1.0881-.85046,281.46992,281.46992,0,0,1-15.00147-29.75449c-.33807-.85028.04288-1.643,1.13944-2.31857a147.57345,147.57345,0,0,1,18.51971-9.3187c9.28006-3.99431,17.67737-4.87135,24.48276-3.138,6.80557,1.73345,10.85278,5.96015,12.49765,12.18155,1.52051,5.7511.38217,10.39862-3.08163,14.09809C192.37666,87.98617,186.67827,91.11858,178.72228,94.44173Zm-5.79038-12.871c.13156-.05514.19739-.08267.329-.13757a8.80175,8.80175,0,0,0,3.61765-2.4744,3.01117,3.01117,0,0,0,.49167-3.15732,6.19725,6.19725,0,0,0-3.24216-3.67639,5.97146,5.97146,0,0,0-4.80222.13565c-.13861.05777-.20788.08676-.3464.14481a1.431,1.431,0,0,0-.98725,1.95117,59.69594,59.69594,0,0,0,2.80649,6.359,1.72879,1.72879,0,0,0,.96869.865A1.56283,1.56283,0,0,0,172.9319,81.57076Z" transform="translate(-1.76667 -4.27553)"/><path class="d" d="M247.075,76.79424c-4.27469,2.624-10.2908,4.06714-18.26984,4.9065-7.97952.83944-14.18985.68457-18.96448-.98047-4.77472-1.6655-8.05212-5.228-9.53491-10.93286a71.76165,71.76165,0,0,1-1.81781-19.03759c.02658-.82713.57392-1.40486,1.63489-1.709a99.24008,99.24008,0,0,1,10.04532-2.20052,106.56462,106.56462,0,0,1,10.72314-1.37884,2.73623,2.73623,0,0,1,1.71674.39911,1.01791,1.01791,0,0,1,.53811,1.17128,59.31413,59.31413,0,0,0-.50354,15.86174,8.08664,8.08664,0,0,0,1.43754,3.86715,3.29526,3.29526,0,0,0,3.22225,1.26169,3.262,3.262,0,0,0,2.87467-1.90308,8.04794,8.04794,0,0,0,.56439-4.07778c-.30075-3.39151-1.52841-8.54046-3.93667-15.3946a1.01958,1.01958,0,0,1,.23864-1.25332,2.55968,2.55968,0,0,1,1.55683-.74436,110.0266,110.0266,0,0,1,11.16488-.90219,97.22434,97.22434,0,0,1,9.87613.0665c1.14582.078,1.82437.52585,2.02957,1.32832,1.82044,8.61362,2.45591,14.95529,2.29486,18.97609C253.72966,70.01089,251.34914,74.16976,247.075,76.79424Z" transform="translate(-1.76667 -4.27553)"/><path class="d" d="M265.13652,81.30813c-3.56289-.338-6.29111-.56754-8.18176-.79969A2.03116,2.03116,0,0,1,255.746,79.931a1.42581,1.42581,0,0,1-.47626-1.11493,232.71616,232.71616,0,0,1,3.63046-33.27415,1.40156,1.40156,0,0,1,.71183-.9543,2.56732,2.56732,0,0,1,1.34921-.39414,189.67135,189.67135,0,0,1,29.53567,3.5535c13.62867,2.68961,19.42212,7.65192,17.7829,12.93643-.83514,2.69226-3.0628,4.4408-6.57971,5.3891a32.03485,32.03485,0,0,1-12.62.33328,1.56133,1.56133,0,0,0-1.08521.14841.39943.39943,0,0,0-.13.61191,1.48445,1.48445,0,0,0,.997.52618,21.67316,21.67316,0,0,1,11.85269,7.23352,14.57164,14.57164,0,0,1,3.001,12.10468,1.463,1.463,0,0,1-.797,1.08847,2.17122,2.17122,0,0,1-1.48828.217c-2.126-.445-5.39173-1.416-9.68537-2.48523-4.33157-1.07858-7.58905-1.7359-9.48947-2.30429a2.22283,2.22283,0,0,1-1.13745-.77173,1.37772,1.37772,0,0,1-.28793-1.13922,26.87614,26.87614,0,0,0,.44159-8.07938c-.28226-2.41324-.95841-3.97726-2.00147-4.67364a.82126.82126,0,0,0-1.10736.35208,4.646,4.646,0,0,0-.70184,1.94876,48.91618,48.91618,0,0,0-.5098,9.47223,1.25584,1.25584,0,0,1-.53995,1.23407,2.03962,2.03962,0,0,1-1.45694.40909C272.65685,82.09664,269.38905,81.7116,265.13652,81.30813Zm15.19422-16.90158c2.49954-.22678,3.90023-1.03891,4.17834-2.508.25208-1.33179-.80566-2.224-3.1817-2.61263l-.246-.04008a1.15754,1.15754,0,0,0-1.50074,1.08109c-.19735,1.21463-.296,1.82189-.4934,3.03652C278.959,64.15282,279.37169,64.49679,280.33074,64.40655Z" transform="translate(-1.76667 -4.27553)"/><path class="d" d="M313.61,92.82351c-2.6654-1.04572-5.43585-2.09979-8.20221-3.20493a1.78892,1.78892,0,0,1-1.00818-.9667,1.2745,1.2745,0,0,1,.077-1.2656,74.296,74.296,0,0,1,11.06055-15.45212,71.94656,71.94656,0,0,1,13.47735-11.72207,2.02565,2.02565,0,0,1,1.78217-.11934,115.832,115.832,0,0,1,13.88544,6.09456,117.63609,117.63609,0,0,1,13.373,7.55813,2.08539,2.08539,0,0,1,1.028,1.53562,72.41575,72.41575,0,0,1-1.51343,17.71176,72.71418,72.71418,0,0,1-5.9873,18.05987,1.44776,1.44776,0,0,1-1.01593.787,1.71752,1.71752,0,0,1-1.33509-.20395c-1.91308-1.15606-4.63373-2.93753-8.23492-5.15637-3.41113-2.10174-6.009-3.62887-7.72766-4.72333a1.9287,1.9287,0,0,1-.85889-1.14715,1.45726,1.45726,0,0,1,.24359-1.32254,24.09564,24.09564,0,0,0,2.17377-3.64224c.90167-1.80912.14331-3.43955-2.46039-4.74677-.16669-.08368-.25-.1254-.41693-.20865-2.53723-1.26568-4.402-.92746-5.31964.85288a32.592,32.592,0,0,0-1.63165,3.912,1.63088,1.63088,0,0,1-.96949.98887,1.89992,1.89992,0,0,1-1.40191-.01508C320.5609,95.63738,317.57305,94.37835,313.61,92.82351Zm21.08-7.3711c.17218.086.25818.129.43017.21546a2.8589,2.8589,0,0,0,1.90534.38275,1.35383,1.35383,0,0,0,1.006-1.12836,45.802,45.802,0,0,0,1.82642-7.23083,2.17736,2.17736,0,0,0-.07611-1.09253.44819.44819,0,0,0-.5658-.28314,2.21846,2.21846,0,0,0-.93652.58575c-2.07691,2.2395-3.6305,4.31354-4.75586,5.76382a1.39816,1.39816,0,0,0-.29889,1.48206A2.94568,2.94568,0,0,0,334.69,85.45241Z" transform="translate(-1.76667 -4.27553)"/><path class="d" d="M369.02556,128.43239c-7.18549-6.90567-12.74878-11.31445-16.1059-14.14492a1.81551,1.81551,0,0,1-.64-1.21637,1.84617,1.84617,0,0,1,.34576-1.334,279.55728,279.55728,0,0,1,21.4632-25.54663c.65088-.64645,1.54059-.6113,2.61621.12952a144.42008,144.42008,0,0,1,16.34827,13.53045c7.61749,7.15192,12.01611,14.864,13.29553,22.1045,1.27917,7.239-.94415,12.80871-6.064,16.729-4.73278,3.62393-9.57068,4.21057-14.50976,2.23074C380.835,138.93542,375.47087,134.62673,369.02556,128.43239Zm9.5799-10.39538c.10675.10232.16009.15353.26666.2561a9.54775,9.54775,0,0,0,3.83386,2.45874,3.022,3.022,0,0,0,3.15747-.74145,6.04424,6.04424,0,0,0,2.06494-4.47333,6.297,6.297,0,0,0-2.149-4.47266c-.11219-.108-.16834-.16189-.28077-.26959a1.47744,1.47744,0,0,0-2.235-.17364,57.81616,57.81616,0,0,0-4.75568,5.085,1.69333,1.69333,0,0,0-.40106,1.24151A1.63487,1.63487,0,0,0,378.60546,118.037Z" transform="translate(-1.76667 -4.27553)"/><path class="d" d="M408.54827,184.37063c-1.89869-2.963-3.85328-6.458-5.88544-10.43662a114.88477,114.88477,0,0,1-4.906-10.65405,39.13609,39.13609,0,0,1-2.39972-9.03165,15.30411,15.30411,0,0,1,.93488-7.96786,15.76175,15.76175,0,0,1,5.28912-6.55c5.01319-3.77209,10.69531-4.53238,17.05182-1.57367,6.35565,2.95923,12.31769,9.037,17.09033,18.38086,4.79572,9.38916,6.46466,18.3002,5.34723,25.69443-1.11731,7.39346-4.90338,11.96942-10.85077,13.90182a14.37734,14.37734,0,0,1-8.42529.33225,16.34827,16.34827,0,0,1-7.16309-4.36548A45.29616,45.29616,0,0,1,408.54827,184.37063Zm5.7503-16.55936c1.61853,3.16876,3.79388,4.113,6.63525,2.71988a6.807,6.807,0,0,0,3.34668-3.33038,5.01827,5.01827,0,0,0-.19311-4.54026,4.84341,4.84341,0,0,0-3.51483-2.72131,6.628,6.628,0,0,0-4.616.8457,4.51236,4.51236,0,0,0-2.42682,2.971A6.08067,6.08067,0,0,0,414.29857,167.81127Z" transform="translate(-1.76667 -4.27553)"/><path class="e" d="M79.46651,199.98031c-10.51846-3.80313-19.653-9.71115-28.89066-15.87577-.67645-.52084-.81921-1.44131-.41086-2.73526a128.52928,128.52928,0,0,1,4.68888-12.21905,102.58736,102.58736,0,0,1,5.15549-10.55362c1.06878-1.79523,2.40444-2.59088,3.90759-2.39484,3.42425.61817,5.75876,1.06714,7.02783,1.28162,3.31055.425,5.32458-.011,6.092-1.37192.74494-1.321.18231-3.08346-1.66885-5.35119q-1.02833-1.35943-2.86585-3.48984c-1.22265-1.42349-1.91882-2.2854-2.10333-2.57035-.90887-1.24786-.92264-2.79986.00232-4.54895a95.79593,95.79593,0,0,1,6.09351-9.46582,113.12921,113.12921,0,0,1,7.35363-9.4093c.80619-.90985,1.61792-1.18994,2.39206-.84848,9.77518,5.16675,19.38581,10.3393,27.95056,17.42154l.11512.10117a1.38549,1.38549,0,0,1,.4407,1.0491,2.29811,2.29811,0,0,1-.429,1.3667c-.86236,1.26837-2.80688,3.63449-5.5614,7.272-3.1824,4.20252-5.16845,7.12155-6.19333,8.36695a2.14524,2.14524,0,0,1-1.15527.77966,1.323,1.323,0,0,1-1.07184-.17316l-.25357-.16974a60.96947,60.96947,0,0,0-7.63351-6.26715,11.34444,11.34444,0,0,0-3.98429-1.90475c-1.08334-.20145-1.80886-.01932-2.16684.53879a2.38942,2.38942,0,0,0,.06962,2.455,21.338,21.338,0,0,0,2.74969,3.96362c1.14706,1.36072,2.26584,2.44635,3.02145,3.253a7.01841,7.01841,0,0,1,1.92716,3.61847,5.56486,5.56486,0,0,1-.82465,3.57156c-1.28555,2.28345-3.45611,3.13489-6.59829,2.56177-.33835-.08377-.83072-.20288-1.478-.354q-.9707-.22554-1.77191-.39261-.79949-.16635-1.551-.26361a17.06717,17.06717,0,0,0-4.16058-.17242,2.37573,2.37573,0,0,0-2.00583,1.23724c-.32318.658-.12555,1.39911.59158,2.21112a10.66611,10.66611,0,0,0,3.31415,2.31192l.456.22367a78.23923,78.23923,0,0,0,8.821,3.33862l.13641.06778a1.47506,1.47506,0,0,1,.78287.95062,2.33408,2.33408,0,0,1-.06528,1.44c-.57605,1.62833-2.13312,4.99649-4.24975,10.29374-1.84641,4.621-2.9939,7.84887-3.68644,9.39172a2.9616,2.9616,0,0,1-1.01321,1.26251,1.3286,1.3286,0,0,1-1.19937.23377Z" transform="translate(-1.76667 -4.27553)"/><path class="e" d="M123.69548,130.45656c-2.105,2.11231-4.26623,4.33921-6.478,6.57233a1.96151,1.96151,0,0,1-1.32258.61023,1.18137,1.18137,0,0,1-1.12567-.53229,69.28216,69.28216,0,0,1-9.37228-16.12027,69.53208,69.53208,0,0,1-4.95175-16.93939,2.11368,2.11368,0,0,1,.6499-1.70093,117.20822,117.20822,0,0,1,11.44113-10.50476,117.30054,117.30054,0,0,1,12.44364-9.25335,2.13119,2.13119,0,0,1,1.81869-.3382,70.36375,70.36375,0,0,1,15.4743,8.15384,70.34459,70.34459,0,0,1,13.95948,12.3111,1.3796,1.3796,0,0,1,.30435,1.2113,1.69742,1.69742,0,0,1-.72476,1.11609c-1.82358,1.26767-4.54715,3.01947-8.05429,5.41827-3.32251,2.27252-5.80365,4.05115-7.52393,5.20023a2.01639,2.01639,0,0,1-1.40854.3482,1.39669,1.39669,0,0,1-1.10669-.72058,22.62552,22.62552,0,0,0-2.41537-3.35409c-1.27292-1.50245-3.07975-1.4332-5.373.45688-.14682.121-.22012.18157-.36667.303-2.22848,1.84681-2.70956,3.694-1.472,5.2009a30.36393,30.36393,0,0,0,2.8862,2.963,1.53225,1.53225,0,0,1,.49273,1.26184,1.98206,1.98206,0,0,1-.61114,1.28739C129.25527,125.02007,126.82619,127.315,123.69548,130.45656Zm2.23706-22.23623c.15116-.12519.22675-.18762.37818-.31235a2.98194,2.98194,0,0,0,1.15158-1.596,1.27881,1.27881,0,0,0-.60825-1.34277,43.52588,43.52588,0,0,0-5.8374-4.39124,2.14353,2.14353,0,0,0-1.03034-.34149.47119.47119,0,0,0-.49694.41071,2.12548,2.12548,0,0,0,.142,1.07568c1.1713,2.74164,2.41208,4.94794,3.261,6.51947a1.3323,1.3323,0,0,0,1.22952.829A3.13442,3.13442,0,0,0,125.93254,108.22033Z" transform="translate(-1.76667 -4.27553)"/><path class="e" d="M178.694,93.92449c-8.87757,3.69742-15.08783,6.93918-18.99335,8.84293a1.82754,1.82754,0,0,1-1.358.10214,1.79831,1.79831,0,0,1-1.07-.82315,268.63206,268.63206,0,0,1-14.52856-29.02127c-.32569-.82993.0596-1.60895,1.15255-2.27884a147.96439,147.96439,0,0,1,18.44355-9.2479c9.23962-3.96537,17.58245-4.86721,24.33468-3.21185,6.75247,1.65543,10.75562,5.75922,12.35364,11.81921,1.4772,5.60193.31088,10.14036-3.17368,13.77256C192.37,87.51156,186.65529,90.60866,178.694,93.92449ZM173.06218,81.3861c.13141-.0549.19711-.08231.32858-.137a8.973,8.973,0,0,0,3.62165-2.445,2.921,2.921,0,0,0,.51794-3.08835,5.95772,5.95772,0,0,0-3.19021-3.56952,6.02938,6.02938,0,0,0-4.77262.166c-.13821.05746-.2073.08627-.34546.144-.96042.40143-1.30691,1.0744-.999,1.91428a56.81938,56.81938,0,0,0,2.72674,6.1958,1.66711,1.66711,0,0,0,.95444.83828A1.57977,1.57977,0,0,0,173.06218,81.3861Z" transform="translate(-1.76667 -4.27553)"/><path class="e" d="M247.07524,76.40932c-4.27356,2.55594-10.29422,3.96476-18.27575,4.80228-7.98206.83759-14.18927.71393-18.94706-.88739-4.7579-1.60178-8.00216-5.05942-9.443-10.61563a68.58626,68.58626,0,0,1-1.69672-18.5566c.031-.80658.57816-1.37214,1.63465-1.67291a100.03342,100.03342,0,0,1,9.99954-2.18075,107.35906,107.35906,0,0,1,10.672-1.37276,2.759,2.759,0,0,1,1.707.385.97972.97972,0,0,1,.53216,1.13989,56.68544,56.68544,0,0,0-.55032,15.45416,7.72131,7.72131,0,0,0,1.42084,3.76392,3.79384,3.79384,0,0,0,6.08462-.63846,7.6835,7.6835,0,0,0,.57263-3.97314c-.29214-3.30307-1.50525-8.31639-3.88565-14.98865a.98053.98053,0,0,1,.24048-1.22131,2.58063,2.58063,0,0,1,1.5509-.72773,110.80276,110.80276,0,0,1,11.11228-.89174,98.02084,98.02084,0,0,1,9.82919.06208c1.14041.07618,1.81592.51256,2.02051,1.29416,1.81576,8.38942,2.456,14.56643,2.29871,18.48213C253.7216,69.80468,251.34828,73.8529,247.07524,76.40932Z" transform="translate(-1.76667 -4.27553)"/><path class="e" d="M265.141,80.82482c-3.56384-.33728-6.293-.56461-8.18427-.793a2.06011,2.06011,0,0,1-1.20968-.56372,1.39165,1.39165,0,0,1-.47763-1.08633,204.02131,204.02131,0,0,1,3.58044-32.40386,1.36356,1.36356,0,0,1,.70728-.92875,2.5906,2.5906,0,0,1,1.34222-.38245,189.74109,189.74109,0,0,1,29.396,3.53169c13.56506,2.67006,19.352,7.54724,17.75939,12.695-.8114,2.62256-3.01416,4.31635-6.50842,5.22315a32.61522,32.61522,0,0,1-12.56689.26535,1.57951,1.57951,0,0,0-1.08066.14017.3833.3833,0,0,0-.12625.596,1.50589,1.50589,0,0,0,.99655.51715A21.96485,21.96485,0,0,1,300.62718,74.749a14.157,14.157,0,0,1,3.08741,11.83335,1.40181,1.40181,0,0,1-.78565,1.05734,2.19374,2.19374,0,0,1-1.483.202c-2.12726-.44907-5.3924-1.41761-9.68775-2.48438-4.33325-1.07617-7.58987-1.73129-9.49407-2.29428a2.25246,2.25246,0,0,1-1.14078-.75717,1.32739,1.32739,0,0,1-.29373-1.11173,25.57537,25.57537,0,0,0,.40023-7.87335c-.29339-2.35318-.975-3.87994-2.0184-4.56213a.8249.8249,0,0,0-1.10312.33938,4.43221,4.43221,0,0,0-.692,1.89673,46.412,46.412,0,0,0-.4672,9.22919,1.20131,1.20131,0,0,1-.5339,1.20071,2.06413,2.06413,0,0,1-1.45444.39347C272.663,81.613,269.39473,81.22735,265.141,80.82482ZM280.24938,64.4002c2.49066-.21268,3.8825-.9989,4.15264-2.42978.24491-1.29715-.81274-2.17072-3.18127-2.55714l-.24521-.03986a1.14077,1.14077,0,0,0-1.49069,1.04875l-.47937,2.95746C278.88088,64.14846,279.29378,64.485,280.24938,64.4002Z" transform="translate(-1.76667 -4.27553)"/><path class="e" d="M313.63378,92.31441c-2.66694-1.04339-5.43866-2.09387-8.20862-3.19311a1.80892,1.80892,0,0,1-1.01422-.95111,1.21876,1.21876,0,0,1,.06573-1.23529,71.39261,71.39261,0,0,1,10.88226-15.01581,69.95232,69.95232,0,0,1,13.28766-11.36276,2.02927,2.02927,0,0,1,1.76715-.10508,116.57589,116.57589,0,0,1,13.82355,6.054,118.29865,118.29865,0,0,1,13.32037,7.50018,2.09157,2.09157,0,0,1,1.034,1.51248,70.40429,70.40429,0,0,1-1.29217,17.35053,69.8675,69.8675,0,0,1-5.69452,17.67209,1.38561,1.38561,0,0,1-.996.76254,1.73432,1.73432,0,0,1-1.32636-.21463c-1.91309-1.1564-4.6358-2.93484-8.24066-5.14871-3.41467-2.097-6.01593-3.61936-7.738-4.7085a1.95179,1.95179,0,0,1-.868-1.13235,1.39587,1.39587,0,0,1,.226-1.2934,22.867,22.867,0,0,0,2.1164-3.54773c.87384-1.763.10229-3.36789-2.49964-4.67023-.16656-.0834-.24987-.125-.41662-.20788-2.53552-1.261-4.38666-.94418-5.27893.78885a30.94348,30.94348,0,0,0-1.57947,3.81415,1.564,1.564,0,0,1-.95367.95916,1.92239,1.92239,0,0,1-1.39557-.0271C320.58824,95.12331,317.59917,93.86574,313.63378,92.31441Zm20.8919-7.03692c.17194.08557.25781.12848.42957.21451a2.9029,2.9029,0,0,0,1.89587.39068,1.29792,1.29792,0,0,0,.98615-1.09613,43.84962,43.84962,0,0,0,1.73437-7.06244,2.11307,2.11307,0,0,0-.087-1.06967.454.454,0,0,0-.56415-.28149,2.1541,2.1541,0,0,0-.923.56579c-2.03729,2.175-3.55981,4.194-4.66009,5.60175a1.34077,1.34077,0,0,0-.28095,1.44775A2.99263,2.99263,0,0,0,334.52568,85.27749Z" transform="translate(-1.76667 -4.27553)"/><path class="e" d="M369.11473,127.84017c-7.19934-6.89044-12.77313-11.28711-16.1394-14.10608a1.83442,1.83442,0,0,1-.65137-1.20261,1.77281,1.77281,0,0,1,.324-1.3074,266.74541,266.74541,0,0,1,20.90277-24.88431c.63519-.6289,1.51422-.587,2.58514.14939a144.74118,144.74118,0,0,1,16.28894,13.43539c7.5932,7.10013,12.01264,14.73435,13.36237,21.88764,1.34942,7.15167-.762,12.63766-5.73914,16.46774-4.60083,3.54056-9.34607,4.07544-14.23584,2.06732C380.92174,138.33974,375.5725,134.02086,369.11473,127.84017Zm9.30585-10.14639c.10675.10187.16.15286.2666.255a9.73036,9.73036,0,0,0,3.81464,2.46121,2.93523,2.93523,0,0,0,3.10174-.70007,5.81483,5.81483,0,0,0,1.97412-4.389,6.35772,6.35772,0,0,0-2.1773-4.42541c-.112-.10736-.16809-.161-.28028-.26807-.78015-.74463-1.55346-.80633-2.20587-.19189a55.073,55.073,0,0,0-4.622,4.96124,1.634,1.634,0,0,0-.3786,1.21887A1.65325,1.65325,0,0,0,378.42058,117.69378Z" transform="translate(-1.76667 -4.27553)"/><path class="e" d="M408.74675,183.661c-1.89276-2.96011-3.84888-6.4498-5.89111-10.41961s-3.71179-7.47056-4.9516-10.62174a39.96524,39.96524,0,0,1-2.4809-8.97876,14.37256,14.37256,0,0,1,5.91254-14.31473c4.87353-3.68567,10.44476-4.38925,16.71454-1.41772,6.269,2.97207,12.18146,9.01813,16.95343,18.29413,4.7951,9.32092,6.51391,18.157,5.49585,25.48849-1.01795,7.33072-4.66992,11.8671-10.4552,13.77a13.75108,13.75108,0,0,1-8.2204.30188,16.21981,16.21981,0,0,1-7.04181-4.37543A46.2706,46.2706,0,0,1,408.74675,183.661Zm5.42352-16.4165c1.6233,3.15536,3.76221,4.1066,6.52533,2.74127a6.53938,6.53938,0,0,0,3.235-3.28375,5.04387,5.04387,0,0,0-.2417-4.50244,4.8685,4.8685,0,0,0-3.47241-2.71946,6.36492,6.36492,0,0,0-4.50946.80689,4.34419,4.34419,0,0,0-2.33972,2.92886A6.16437,6.16437,0,0,0,414.17027,167.24453Z" transform="translate(-1.76667 -4.27553)"/><path class="e" d="M57.45632,339.17287a80.04791,80.04791,0,0,1-6.062-14.376A46.359,46.359,0,0,1,49.3,312.49578a17.10728,17.10728,0,0,1,2.13613-9.35983,11.7123,11.7123,0,0,1,6.634-5.084c5.61554-1.84759,11.11944-.05444,16.68008,4.51392,5.56043,4.56778,10.22659,11.03363,14.69714,19.37747,3.44178,6.42383,5.782,11.55023,6.786,15.85779a1.71283,1.71283,0,0,1-1.09066,2.11218c-3.74756,1.571-5.63285,2.33521-9.42566,3.81958a1.35552,1.35552,0,0,1-1.49366-.19293,2.5069,2.5069,0,0,1-.73547-1.75073,32.90157,32.90157,0,0,0-3.90567-12.48328c-3.10889-5.68164-6.28329-7.81793-9.887-6.02753-1.24216.61719-1.7891,2.01013-1.5911,4.1781a22.1604,22.1604,0,0,0,3.00882,8.248,35.90473,35.90473,0,0,0,6.09815,8.18085,30.93441,30.93441,0,0,0,8.31778,5.72766,1.91,1.91,0,0,1,1.282,1.33636,1.54657,1.54657,0,0,1-.56821,1.78321q-3.20691,3.0303-9.9668,8.7713c-.59793.50457-1.30239.405-2.10885-.31372a79.90441,79.90441,0,0,1-8.38538-9.28675A86.53727,86.53727,0,0,1,57.45632,339.17287Z" transform="translate(-1.76667 -4.27553)"/><path class="e" d="M82.50228,375.74636c-2.40726-2.83545-4.80292-5.87909-7.04032-9.111a2.73762,2.73762,0,0,1-.53393-1.68763,1.05267,1.05267,0,0,1,.694-1.06976,106.12939,106.12939,0,0,1,17.73391-5.98065c6.55829-1.6806,12.158-2.94244,16.87662-3.66358a1.75847,1.75847,0,0,1,1.50946.56446c1.56168,1.50207,4.57642,4.87384,9.35465,9.4862,4.805,4.63813,8.21716,7.47895,9.76467,8.97522a1.76778,1.76778,0,0,1,.635,1.50379c-.602,4.663-1.72345,10.25561-3.24539,16.84857a107.82222,107.82222,0,0,1-5.54187,17.86926,1.227,1.227,0,0,1-1.05.72772,2.27746,2.27746,0,0,1-1.54541-.36621,110.11437,110.11437,0,0,1-9.71649-7.03521,106.371,106.371,0,0,1-8.51452-7.46082,2.72581,2.72581,0,0,1-.82422-1.532,1.2432,1.2432,0,0,1,.45352-1.27375,18.61154,18.61154,0,0,0,2.92578-2.91247c1.25421-1.5083.723-3.37714-1.69626-5.70435-.15472-.1488-.232-.22332-.38638-.37268-2.34961-2.27276-4.34113-2.8078-5.7638-1.49261a24.959,24.959,0,0,0-2.73352,3.10065,1.36364,1.36364,0,0,1-1.29663.49487,2.685,2.685,0,0,1-1.52737-.77118A114.80385,114.80385,0,0,1,82.50228,375.74636Zm23.8833,3.70093c.1502.1452.22543.21771.376.36242a3.20131,3.20131,0,0,0,1.81189,1.02021,1.22962,1.22962,0,0,0,1.25534-.77668,54.77256,54.77256,0,0,0,3.5585-6.37457,2.20048,2.20048,0,0,0,.22828-1.05017.44261.44261,0,0,0-.446-.4303,2.16845,2.16845,0,0,0-1.03692.27014c-2.57673,1.46967-4.6706,2.896-6.16327,3.86322a1.28661,1.28661,0,0,0-.6988,1.314A3.38377,3.38377,0,0,0,106.38558,379.44729Z" transform="translate(-1.76667 -4.27553)"/><path class="e" d="M143.94917,384.64651a1.61772,1.61772,0,0,1,1.05289-.494,1.993,1.993,0,0,1,1.23636.35089c5.26608,3.33136,10.73782,6.29382,16.109,8.99792,8.02277,4.03907,13.72729,6.25031,16.64993,7.52961a1.66621,1.66621,0,0,1,1.09113,2.19482c-1.50229,4.92621-2.90927,9.16089-4.15387,12.54163a.95158.95158,0,0,1-.9798.69677,3.47228,3.47228,0,0,1-1.0007-.1261,1.5732,1.5732,0,0,1-.82749-.74572,17.03169,17.03169,0,0,0-4.74783-5.83161,39.06693,39.06693,0,0,0-7.21411-4.27527,9.25029,9.25029,0,0,0-3.83127-1.13012,1.92761,1.92761,0,0,0-1.82956.84314l-.14087.271c-.71933,1.38367.91828,3.13605,5.00666,5.03278a81.319,81.319,0,0,0,8.37539,3.03961c.07489.03058.17.06934.28321.1153a1.6033,1.6033,0,0,1,1.05133,1.95434c-.09217.54383-.23667,1.209-.43973,1.98419q-.30455,1.16246-.69025,2.53974-.38636,1.37584-.55334,1.96521l-.03809.09466a1.00746,1.00746,0,0,1-.91574.73151,2.43019,2.43019,0,0,1-.93045-.09509,1.60843,1.60843,0,0,1-.63647-.47431,41.23391,41.23391,0,0,0-8.97394-5.9002c-.23053-.10779-.46234-.21882-.69156-.325-1.98844-.92028-3.48786-1.30877-4.45682-1.14935a3.10607,3.10607,0,0,0-2.27774,1.81159,18.3007,18.3007,0,0,0-1.21432,4.05944c-.42652,1.98621-.66379,3.09894-.7306,3.33008l-.09231.18109a1.24453,1.24453,0,0,1-.96536.627,2.90384,2.90384,0,0,1-1.60605-.21509,101.36194,101.36194,0,0,1-11.30539-5.99353,101.18417,101.18417,0,0,1-8.80771-5.76593,2.84023,2.84023,0,0,1-.994-1.27826,1.32027,1.32027,0,0,1,.09622-1.28705A284.64551,284.64551,0,0,1,143.94917,384.64651Z" transform="translate(-1.76667 -4.27553)"/><path class="e" d="M195.2701,443.07039a151.51288,151.51288,0,0,1-22.64221-6.55615,2.644,2.644,0,0,1-1.25434-.99585,1.382,1.382,0,0,1-.21243-1.28528c4.02145-10.09759,8.01227-20.211,12.92783-29.9187a1.62435,1.62435,0,0,1,2.10382-.74225c2.27349.59681,7.99105,2.47931,17.37835,4.5514,9.02317,1.9917,15.20059,2.745,18.2572,3.26324a1.62394,1.62394,0,0,1,1.54429,1.80261c-.20932,4.40754-.65268,8.30219-.88315,11.27344a1.17137,1.17137,0,0,1-.97779,1.17053,2.38759,2.38759,0,0,1-1.94339-.52575,41.07563,41.07563,0,0,0-13.77911-5.43781,9.38656,9.38656,0,0,0-3.94607-.16345c-.88831.24072-1.40452.65289-1.542,1.24646l-.03418.14746c-.252,1.088,1.78531,2.15186,6.15421,2.9696,1.11124.20795,2.62079.43915,4.52746.66437,1.90613.22522,3.41889.40143,4.53766.55738a2.576,2.576,0,0,1,1.38343.59765,1.22937,1.22937,0,0,1,.45947,1.13349c-.22141,1.46368-.33234,2.19549-.55469,3.659a1.153,1.153,0,0,1-.76181.97412,1.37978,1.37978,0,0,1-1.30759-.1253,40.20922,40.20922,0,0,0-9.14767-3.031,21.42547,21.42547,0,0,0-5.309-.41961c-1.09253.12878-1.737.59863-1.92777,1.42224l-.08013.346c-.42753,1.84564,2.15454,3.45135,7.80911,4.4646a23.295,23.295,0,0,0,9.17047.07659,16.52951,16.52951,0,0,0,7.1943-3.87439,2.06983,2.06983,0,0,1,2.08991-.41088,1.47544,1.47544,0,0,1,1.24078,1.3814q.417,5.17246.20478,14.406a1.46959,1.46959,0,0,1-.69733,1.14062,2.47174,2.47174,0,0,1-1.51715.4068A168.41021,168.41021,0,0,1,195.2701,443.07039Z" transform="translate(-1.76667 -4.27553)"/><path class="e" d="M254.01521,447.93282a116.10627,116.10627,0,0,1-13.10357.12488,2.44425,2.44425,0,0,1-1.70069-.75641,1.36468,1.36468,0,0,1-.34277-1.349c2.63574-10.46039,3.85339-16.74884,4.34979-18.51208a2.25393,2.25393,0,0,0-.30447-2.28022,2.79757,2.79757,0,0,0-2.08725-.82025c-1.15356-.01165-3.0993.59729-5.92047,1.75226s-4.47916,1.74286-4.89249,1.85071a1.57668,1.57668,0,0,1-2.18887-1.67688c.32461-2.92877.82214-7.25745,1.68353-12.68256a1.62256,1.62256,0,0,1,1.89459-1.34637c3.52948.097,10.39527.43133,20.54084-.07587s16.94723-1.52643,20.45285-1.9776a1.63151,1.63151,0,0,1,2.02722,1.149c1.54471,5.77039,2.5983,9.96112,3.08633,12.58569a1.41106,1.41106,0,0,1-.53488,1.4588,1.59265,1.59265,0,0,1-1.55768.29114,50.41485,50.41485,0,0,1-5.09442-1.34631c-2.90961-.86963-4.88165-1.2843-5.98743-1.16162a2.88763,2.88763,0,0,0-2.02127,1.028,2.16791,2.16791,0,0,0-.09491,2.3017c.34983.84729.80164,2.23822,1.41312,4.06055.61139,1.82208,1.40469,4.16882,2.40591,7.03241,1.00071,2.86462,1.84494,5.15582,2.50657,6.88012a1.51692,1.51692,0,0,1-.26688,1.3841,2.35223,2.35223,0,0,1-1.54691.91516A112.82555,112.82555,0,0,1,254.01521,447.93282Z" transform="translate(-1.76667 -4.27553)"/><path class="e" d="M308.08525,438.32888a151.42915,151.42915,0,0,1-22.8865,5.611,2.67759,2.67759,0,0,1-1.589-.23462,1.40978,1.40978,0,0,1-.8439-1.00232c-1.749-10.69952-3.53318-21.397-4.31607-32.22259-.05967-.84882.41842-1.41211,1.4237-1.686,2.25964-.61572,8.13822-1.82806,17.32434-4.72125,8.82929-2.78082,14.592-5.24127,17.517-6.33679a1.66022,1.66022,0,0,1,2.275.77246c2.0998,3.90063,3.7323,7.47674,5.06946,10.14935a1.15478,1.15478,0,0,1-.24432,1.50147,2.42489,2.42489,0,0,1-1.96155.52813,42.27421,42.27421,0,0,0-14.76642,2.22821,9.34466,9.34466,0,0,0-3.49872,1.82831,1.82512,1.82512,0,0,0-.68933,1.84308l.04669.1441c.34443,1.06324,2.653.96692,6.86078-.51251,1.07-.37616,2.49689-.9317,4.26746-1.69324,1.76843-.7608,3.17377-1.36907,4.22583-1.79711a2.62565,2.62565,0,0,1,1.50964-.18067,1.25332,1.25332,0,0,1,.98584.74463c.56555,1.37158.84809,2.05737,1.41278,3.42932a1.13385,1.13385,0,0,1-.15753,1.222,1.38846,1.38846,0,0,1-1.20032.54968,41.196,41.196,0,0,0-9.50055,1.97357,21.41482,21.41482,0,0,0-4.81268,2.289,1.897,1.897,0,0,0-.931,2.18653l.10956.33807c.58435,1.80377,3.64325,1.904,9.06738-.0517a23.2083,23.2083,0,0,0,7.9942-4.53283,16.29775,16.29775,0,0,0,4.2475-6.96338,2.07,2.07,0,0,1,1.60492-1.41113,1.50994,1.50994,0,0,1,1.79468.56q3.04147,4.23954,7.63953,12.29194a1.451,1.451,0,0,1-.017,1.33587,2.47139,2.47139,0,0,1-1.10993,1.11969A164.17664,164.17664,0,0,1,308.08525,438.32888Z" transform="translate(-1.76667 -4.27553)"/><path class="e" d="M349.84545,420.06838a98.0028,98.0028,0,0,1-9.06617,4.68939,2.83417,2.83417,0,0,1-1.59466.23749,1.31724,1.31724,0,0,1-1.05976-.66406,271.478,271.478,0,0,1-13.07214-29.91467,1.389,1.389,0,0,1,.05481-1.1142,2.05315,2.05315,0,0,1,.78876-.92676,185.395,185.395,0,0,0,21.50549-13.66272c9.64575-7.08551,15.78034-9.47412,19.41754-5.48675,1.85248,2.03082,2.2536,4.77642,1.03607,8.21789-1.21844,3.44226-3.77526,6.97815-7.70373,10.3703a1.71037,1.71037,0,0,0-.64465.92951.37294.37294,0,0,0,.36651.48828,1.64012,1.64012,0,0,0,1.09912-.44312,33.95,33.95,0,0,1,13.73529-5.94482,16.235,16.235,0,0,1,12.67627,2.55108,1.23122,1.23122,0,0,1,.48126,1.26545,3.027,3.027,0,0,1-.8103,1.63977,102.26834,102.26834,0,0,1-9.38769,8.51556,97.58171,97.58171,0,0,1-9.84473,7.36115,3.1501,3.1501,0,0,1-1.59564.49115,1.25707,1.25707,0,0,1-1.11066-.491,23.75756,23.75756,0,0,0-5.55383-5.676c-1.97388-1.39148-3.606-1.954-4.92029-1.6795a.915.915,0,0,0-.64685,1.04834,4.15544,4.15544,0,0,0,.76038,1.87848,36.39469,36.39469,0,0,0,6.15612,6.96447,1.05,1.05,0,0,1,.37616,1.28138,2.78355,2.78355,0,0,1-1.08331,1.45282A116.049,116.049,0,0,1,349.84545,420.06838Zm2.52771-23.11945c1.72875-1.91284,2.13641-3.48608,1.28729-4.67334-.76972-1.07623-2.11493-.91967-4.066.40717l-.20282.13776a1.12778,1.12778,0,0,0-.3504,1.76928c.6723.99555,1.00842,1.49323,1.68066,2.48877C351.15923,397.7261,351.71141,397.68581,352.37316,396.94893Z" transform="translate(-1.76667 -4.27553)"/><path class="e" d="M407.5692,369.97225a97.7203,97.7203,0,0,1-7.57062,9.34839,95.48632,95.48632,0,0,1-8.30554,8.49768,3.29514,3.29514,0,0,1-1.564.76038,1.28333,1.28333,0,0,1-1.21857-.30329c-7.43317-7.82745-14.88-15.91614-21.31256-24.73706a1.7287,1.7287,0,0,1,.27612-2.30224c1.26392-1.514,3.13019-3.52442,5.43366-6.1139,2.25109-2.5307,4.03405-4.62823,5.415-6.07855a1.85087,1.85087,0,0,1,2.26526-.55682c9.42438,5.46429,18.198,12.07281,26.72205,18.65857a1.28832,1.28832,0,0,1,.46326,1.18884A3.44345,3.44345,0,0,1,407.5692,369.97225Z" transform="translate(-1.76667 -4.27553)"/><path class="e" d="M418.12267,355.67812c-2.10572,3.20386-4.38935,6.411-6.86389,9.47138a2.68019,2.68019,0,0,1-1.4621.978,1.03576,1.03576,0,0,1-1.20587-.386,105.10534,105.10534,0,0,1-10.47895-15.67023,168.076,168.076,0,0,1-7.96-15.58887,1.88651,1.88651,0,0,1,.15552-1.66632c1.05115-2.00018,3.54089-5.99188,6.87506-12.36835,3.35284-6.41217,5.341-11.00552,6.44916-13.1727a2.06891,2.06891,0,0,1,1.3313-1.20526c4.743-1.02661,10.5318-1.8666,17.40753-2.68756a99.80586,99.80586,0,0,1,18.97388-.75558,1.12075,1.12075,0,0,1,.96661.87066,2.95752,2.95752,0,0,1,.00061,1.83277,136.48857,136.48857,0,0,1-4.6557,13.07184,124.02721,124.02721,0,0,1-5.30225,11.53106,3.15692,3.15692,0,0,1-1.30414,1.36786,1.1731,1.1731,0,0,1-1.36145-.04169,16.88476,16.88476,0,0,0-3.57269-2.04742c-1.78265-.78851-3.49566.39441-5.17651,3.62274-.10755.20648-.16144.30963-.26941.51563-1.64392,3.13586-1.66095,5.30987-.02435,6.3341a23.27544,23.27544,0,0,0,3.70861,1.79145,1.34873,1.34873,0,0,1,.8078,1.15557,3.03682,3.03682,0,0,1-.36755,1.78254A123.45806,123.45806,0,0,1,418.12267,355.67812Zm-2.46582-25.11566c.10486-.2002.15722-.30048.26159-.50116a3.76548,3.76548,0,0,0,.55353-2.18964,1.17381,1.17381,0,0,0-1.06915-1.03418,50.80132,50.80132,0,0,0-7.1211-1.55975,2.12667,2.12667,0,0,0-1.08483.10883.50839.50839,0,0,0-.31043.59411,2.18487,2.18487,0,0,0,.52051.9715c2.0755,2.15417,3.9967,3.83624,5.30591,5.03668a1.2134,1.2134,0,0,0,1.45837.28961A3.83044,3.83044,0,0,0,415.65685,330.56246Z" transform="translate(-1.76667 -4.27553)"/><circle class="f" cx="244.44258" cy="245.55489" r="124.16408"/><path class="g" d="M246.32383,252.80321l107.14808-61.74556a122.66653,122.66653,0,0,0-44.72256-46.17519L246.32377,252.80321,183.8982,144.88252a122.6672,122.6672,0,0,0-44.72251,46.17519l107.14808,61.74556-104.5127,60.22681a122.705,122.705,0,0,0,44.72226,43.13846l59.7905-103.36527,59.79051,103.36527a122.70531,122.70531,0,0,0,44.7222-43.13846Z" transform="translate(-1.76667 -4.27553)"/><path class="h" d="M84.9912,254.85761a25.0217,25.0217,0,0,0-7.10862-12.7502,25.07392,25.07392,0,0,0-12.751-7.10894c-4.64966-.87431-8.70694.14561-11.43379,2.86789s-3.76125,6.78429-2.86789,11.43379A26.71,26.71,0,0,0,70.68951,269.1593a16.86052,16.86052,0,0,0,3.15452.30564,11.40158,11.40158,0,0,0,8.27936-3.17357c2.71274-2.72685,3.74219-6.7843,2.86789-11.43379Zm-8.14789,6.74165h-.09872A10.519,10.519,0,0,1,68.287,256.456a17.2594,17.2594,0,0,1-1.51379-4.062,14.6357,14.6357,0,0,0-1.41052-3.76126c-1.15178-1.88041-3.23453-3.36146-6.18251-4.41484a1.17531,1.17531,0,1,1,.78511-2.21428c3.46968,1.2364,5.96146,3.05125,7.40019,5.402a16.40469,16.40469,0,0,1,1.67389,4.32988,15.37977,15.37977,0,0,0,1.29735,3.53558,8.14944,8.14944,0,0,0,6.615,3.9541,1.17621,1.17621,0,1,1-.08917,2.35073Z" transform="translate(-1.76667 -4.27553)"/><path class="h" d="M407.42723,255.70156c-.87431,4.6495.15514,8.70694,2.86789,11.43379a11.40156,11.40156,0,0,0,8.27936,3.17357,16.86042,16.86042,0,0,0,3.15451-.30564,26.71006,26.71006,0,0,0,19.85966-19.85915c.89336-4.6495-.141-8.71148-2.8679-11.43379s-6.78413-3.7422-11.43379-2.86789a26.71,26.71,0,0,0-19.85965,19.85915Zm8.12867,6.71836a1.17621,1.17621,0,1,1-.08916-2.35073,8.1494,8.1494,0,0,0,6.615-3.9541,15.37884,15.37884,0,0,0,1.29735-3.53558,16.405,16.405,0,0,1,1.67389-4.32988c1.43873-2.35073,3.93051-4.16558,7.40019-5.402a1.17531,1.17531,0,1,1,.78511,2.21428c-2.948,1.05338-5.03073,2.53443-6.1825,4.41484a14.63549,14.63549,0,0,0-1.41053,3.76126,17.25981,17.25981,0,0,1-1.51378,4.062,10.519,10.519,0,0,1-8.4576,5.14323h-.09871Z" transform="translate(-1.76667 -4.27553)"/><path class="i" d="M265.20924,296.77312l-46.55464,0a4.66173,4.66173,0,0,1-3.3703-1.72792c-14.68115-20.57783-26.88712-43.28524-27.74215-81.09354a4.161,4.161,0,0,1,4.14425-4.27394H292.16926a4.16108,4.16108,0,0,1,4.14424,4.27793c-.886,37.516-13.40627,61.08845-27.74111,81.10007A4.65525,4.65525,0,0,1,265.20924,296.77312Zm38.93019-68.82306q-.3189,3.09445-.73941,6.0601a4.02105,4.02105,0,0,0,4.09647,4.69935h0c3.8543,0,5.504,2.77238,3.62559,6.138-3.49431,6.26071-8.49858,11.60939-12.77537,14.34307a4.81856,4.81856,0,0,0-1.62916,2.09906q-1.65772,4.63529-3.56124,8.9318c-2.94813,6.68821-.365,8.91792,5.91079,5.1712,16.85261-10.06122,29.57855-28.11713,32.925-46.38536a4.002,4.002,0,0,0-4.09369-4.81364l-19.641,0A4.247,4.247,0,0,0,304.13943,227.95006Zm-46.7826-35.07549c12.88685-16.8519-4.02579-20.99-8.32631-31.26962-1.88512-4.506-5.01716-4.79727-7.488-.58386-8.548,14.57638,5.98923,19.64609,8.47663,30.30825C251.11383,196.02173,254.42988,196.70208,257.35683,192.87457Zm-21.17016-.2412c3.85924-8.24434-3.32114-12.47575-6.63767-18.20568-2.48157-4.28741-6.02126-3.76119-7.50567.965-2.37512,7.56207,4.1323,11.32124,6.57412,17.09779C230.47307,196.88025,234.16615,196.94975,236.18667,192.63337ZM292.22325,311.289H191.63463a4.15249,4.15249,0,0,0-4.14032,4.14032v6.23527a4.15248,4.15248,0,0,0,4.14032,4.14031H292.22325a4.15248,4.15248,0,0,0,4.14032-4.14031v-6.23527A4.15249,4.15249,0,0,0,292.22325,311.289Z" transform="translate(-1.76667 -4.27553)"/><path class="j" d="M221.71964,234.45461l-31.60109,0a31.64881,31.64881,0,0,0-.43766,5.18425c0,12.59453,7.2701,22.80428,16.23825,22.80428,8.96807,0,16.23817-10.20976,16.23816-22.8043A31.649,31.649,0,0,0,221.71964,234.45461Z" transform="translate(-1.76667 -4.27553)"/><ellipse class="k" cx="203.90369" cy="234.85186" rx="2.50316" ry="2.76885"/><path class="l" d="M205.91913,216.83448c-7.69624,0-14.12706,7.52744-15.80058,17.62015l31.60109,0C220.04612,224.36191,213.61529,216.83448,205.91913,216.83448Z" transform="translate(-1.76667 -4.27553)"/><polygon class="m" points="202.779 234.376 195.241 232.254 197.173 239.843 202.779 234.376"/><path class="j" d="M260.71964,234.45461l-31.60109,0a31.64881,31.64881,0,0,0-.43766,5.18425c0,12.59453,7.2701,22.80428,16.23825,22.80428,8.96807,0,16.23817-10.20976,16.23816-22.8043A31.649,31.649,0,0,0,260.71964,234.45461Z" transform="translate(-1.76667 -4.27553)"/><ellipse class="k" cx="242.90369" cy="234.85186" rx="2.50316" ry="2.76885"/><path class="l" d="M244.91913,216.83448c-7.69624,0-14.12706,7.52744-15.80058,17.62015l31.60109,0C259.04612,224.36191,252.61529,216.83448,244.91913,216.83448Z" transform="translate(-1.76667 -4.27553)"/><polygon class="m" points="241.779 234.376 234.241 232.254 236.173 239.843 241.779 234.376"/><path class="n" d="M252.65626,269.38873c0,5.63261-9.28264,10.19874-20.73335,10.19874s-20.73334-4.56613-20.73334-10.19874" transform="translate(-1.76667 -4.27553)"/><ellipse class="o" cx="224.38377" cy="254.9219" rx="11.03113" ry="7.5905"/></svg>