<svg xmlns="http://www.w3.org/2000/svg" viewBox="0 0 937.15614 939.08873"><defs><style>.a{fill:#fff;}.b{fill:#fed32f;}</style></defs><rect class="a" x="70.35936" y="70.1962" width="824.64014" height="824.64014"/><path d="M919.97192,102.80333V920.44379H102.33147V102.80333H919.97192m7-7H95.33147V927.44379H926.97192V95.80333Z" transform="translate(-28.47219 -29.10702)"/><rect class="a" x="48.05614" y="46.94913" width="824.64063" height="824.64014"/><path d="M897.66852,79.55617V897.19666H80.02806V79.55617H897.66852m7-7H73.02806V904.19666H904.66852V72.55617Z" transform="translate(-28.47219 -29.10702)"/><path class="b" d="M57.93506,116.168A55.27824,55.27824,0,0,0,38.394,58.59326a54.44942,54.44942,0,0,0,13.76563,1.75A55.76707,55.76707,0,0,0,95.90723,38.94482,55.278,55.278,0,0,0,115.44873,96.519a54.4688,54.4688,0,0,0-13.76562-1.74951A55.76653,55.76653,0,0,0,57.93506,116.168Z" transform="translate(-28.47219 -29.10702)"/><path d="M93.85543,43.08775A56.45665,56.45665,0,0,0,111.297,94.4793a56.00462,56.00462,0,0,0-9.61382-.82413,56.89254,56.89254,0,0,0-41.6959,18.36928A56.456,56.456,0,0,0,42.54583,60.6332a55.99761,55.99761,0,0,0,9.61372.824A56.89442,56.89442,0,0,0,93.85543,43.08775M100.76835,29.107A54.16516,54.16516,0,0,1,52.15954,59.22879a53.51221,53.51221,0,0,1-23.6873-5.5197l0,.00009a54.15872,54.15872,0,0,1,24.60207,72.29611l.00009.00006a54.16411,54.16411,0,0,1,48.6088-30.12177,53.51523,53.51523,0,0,1,23.68731,5.51969l.00005-.00009a54.15872,54.15872,0,0,1-24.60207-72.29611l-.00009-.00005Z" transform="translate(-28.47219 -29.10702)"/><path class="b" d="M910.025,957.23186a55.27823,55.27823,0,0,0-41.26573-44.6524,54.4497,54.4497,0,0,0,13.28763-3.99921,55.767,55.767,0,0,0,31.26488-37.33965,55.278,55.278,0,0,0,41.266,44.65177,54.46836,54.46836,0,0,0-13.28743,3.99965A55.76654,55.76654,0,0,0,910.025,957.23186Z" transform="translate(-28.47219 -29.10702)"/><path d="M913.12212,875.85988a56.45664,56.45664,0,0,0,36.83328,39.85737,56.00445,56.00445,0,0,0-9.11811,3.15667,56.89255,56.89255,0,0,0-30.62238,33.73795,56.456,56.456,0,0,0-36.83306-39.85714,55.99754,55.99754,0,0,0,9.118-3.15676,56.89439,56.89439,0,0,0,30.62229-33.73809m.63-15.58372a54.16515,54.16515,0,0,1-32.15855,47.286,53.51221,53.51221,0,0,1-23.88487,4.59006l0,.00011a54.15871,54.15871,0,0,1,51.876,56.04342l.00011,0a54.16412,54.16412,0,0,1,32.15855-47.286,53.51519,53.51519,0,0,1,23.88487-4.59006l0-.00011a54.15872,54.15872,0,0,1-51.876-56.04342l-.00011,0Z" transform="translate(-28.47219 -29.10702)"/></svg>